<?xml version="1.0" encoding="utf-8"?>
<!-- Generator: Adobe Illustrator 24.2.0, SVG Export Plug-In . SVG Version: 6.00 Build 0)  -->
<svg version="1.1" id="Layer_1" xmlns="http://www.w3.org/2000/svg" xmlns:xlink="http://www.w3.org/1999/xlink" x="0px" y="0px"
	 viewBox="0 0 100 100" style="enable-background:new 0 0 100 100;" xml:space="preserve">
<g>
	<path d="M44.016,33.104c4.86,2.62,10.919,0.747,13.507-4.173c2.588-4.921,0.739-11.055-4.121-13.675l-3.839-2.069
		c-4.571-2.464-9.535-3.449-14.358-3.13l6.585,21.847L44.016,33.104z"/>
	<path d="M30.226,35.345L12.49,25.786c-3.382,7.377-3.211,15.603-0.127,22.591l19.715-6.091
		C30.265,40.503,29.538,37.829,30.226,35.345z"/>
	<polygon points="60.202,57.762 33.187,66.108 53.408,77.006 80.421,68.66 	"/>
	<path d="M84.706,70.969l-0.577-0.311l-27.014,8.346l18.206,9.812c4.86,2.619,10.919,0.747,13.507-4.173
		C91.415,79.723,89.566,73.589,84.706,70.969z"/>
	<path d="M35.41,44.4l-21.669,6.695c2.43,4.183,5.99,7.76,10.522,10.203l5.218,2.812l27.014-8.346L35.41,44.4z"/>
	<path d="M38.18,30.329l-5.997-19.895c-7.392,1.345-14.166,5.781-18.295,12.694l17.736,9.559
		C33.239,30.766,35.757,29.875,38.18,30.329z"/>
</g>
</svg>
